{"title":"Salmon Fishing In The Yemen 2011 BRRip XViD UNiQUE","uid":7398675,"size":1657798656,"categoryP":"video","categoryS":"movies","magnet":"?xt=urn:btih:4fc3682c8b3f676def923aa8b08d20dd447e0b2c&amp;dn=Salmon+Fishing+In+The+Yemen+2011+BRRip+XViD+UNiQUE&amp;tr=udp%3A%2F%2Ftracker.openbittorrent.com%3A80&amp;tr=udp%3A%2F%2Fopen.demonii.com%3A1337&amp;tr=udp%3A%2F%2Ftracker.coppersurfer.tk%3A6969&amp;tr=udp%3A%2F%2Fexodus.desync.com%3A6969","seeders":1,"leechers":0,"uploader":"neon","files":-1,"time":1340996761,"description":"A fisheries expert is approached by a consultant to help realize a sheik's vision of bringing the sport of fly-fishing to the desert and embarks on an upstream journey of faith and fish to prove the impossible possible.\n &lt;a href=&quot;\nhttp://img687.imageshack.us/img687/3214/vlcsnap2012062910h13m53.png&quot; rel=&quot;nofollow&quot; target=&quot;_NEW&quot;&gt;\nhttp://img687.imageshack.us/img687/3214/vlcsnap2012062910h13m53.png&lt;/a&gt; &lt;a href=&quot;\nhttp://img62.imageshack.us/img62/1289/vlcsnap2012062910h14m09.png&quot; rel=&quot;nofollow&quot; target=&quot;_NEW&quot;&gt;\nhttp://img62.imageshack.us/img62/1289/vlcsnap2012062910h14m09.png&lt;/a&gt;\n\nFormat : AVI\n Format/Info : Audio Video Interleave\n File size : 1.53 GiB\n Duration : 1h 43mn\n Overall bit rate : 2 118 Kbps\n Writing application : VirtualDubMod 1.5.10.2 (build 2540/release)\n Writing library : VirtualDubMod build 2540/release\n \nVideo\n ID : 0\n Format : MPEG-4 Visual\n Format profile : Advanced Simple@L5\n Format settings, BVOP : 2\n Format settings, QPel : No\n Format settings, GMC : No warppoints\n Format settings, Matrix : Default (H.263)\n Muxing mode : Packed bitstream\n Codec ID : XVID\n Codec ID/Hint : XviD\n Duration : 1h 43mn\n Bit rate : 1 724 Kbps\n Width : 720 pixels\n Height : 304 pixels\n Display aspect ratio : 2.35:1\n Frame rate : 23.976 fps\n Color space : YUV\n Chroma subsampling : 4:2:0\n Bit depth : 8 bits\n Scan type : Progressive\n Compression mode : Lossy\n Bits/(Pixel*Frame) : 0.329\n Stream size : 1.25 GiB (81%)\n Writing library : XviD 64\n \nAudio\n ID : 1\n Format : AC-3\n Format/Info : Audio Coding 3\n Mode extension : CM (complete main)\n Format settings, Endianness : Big\n Codec ID : 2000\n Duration : 1h 43mn\n Bit rate mode : Constant\n Bit rate : 384 Kbps\n Channel(s) : 6 channels\n Channel positions : Front: L C R, Side: L R, LFE\n Sampling rate : 48.0 KHz\n Bit depth : 16 bits\n Compression mode : Lossy\n Stream size : 285 MiB (18%)\n Alignment : Split accross interleaves\n Interleave, duration : 42 ms (1.00 video frame)\n Interleave, preload duration : 500 ms","torrent":{"xt":"urn:btih:4fc3682c8b3f676def923aa8b08d20dd447e0b2c","amp;dn":"Salmon+Fishing+In+The+Yemen+2011+BRRip+XViD+UNiQUE","amp;tr":["udp%3A%2F%2Ftracker.openbittorrent.com%3A80","udp%3A%2F%2Fopen.demonii.com%3A1337","udp%3A%2F%2Ftracker.coppersurfer.tk%3A6969","udp%3A%2F%2Fexodus.desync.com%3A6969"],"infoHash":"4fc3682c8b3f676def923aa8b08d20dd447e0b2c","infoHashBuffer":{"type":"Buffer","data":[79,195,104,44,139,63,103,109,239,146,58,168,176,141,32,221,68,126,11,44]},"announce":[],"urlList":[]}}